<svg width="111" height="111" viewBox="0 0 111 111" fill="none" xmlns="http://www.w3.org/2000/svg">
<circle cx="57.8879" cy="58.1574" r="52.2814" stroke="#DFF3EE"/>
<path d="M96.8649 15.5038C85.5525 5.1665 70.5969 -0.253635 55.2882 0.43583C39.9795 1.12529 25.5717 7.86787 15.2344 19.1803C4.89702 30.4927 -0.523113 45.4482 0.166347 60.7569C0.855808 76.0656 7.59839 90.4734 18.9108 100.811L20.2798 99.3126C9.36472 89.3384 2.85897 75.4366 2.19373 60.6656C1.52848 45.8946 6.75824 31.4643 16.7325 20.5493C26.7068 9.63421 40.6085 3.12845 55.3795 2.46321C70.1505 1.79796 84.5808 7.02772 95.4959 17.002L96.8649 15.5038Z" fill="#E0E8E6"/>
<circle cx="96.8664" cy="16.6999" r="2.39961" fill="#C4C4C4"/>
<circle cx="20.5822" cy="101.112" r="2.39961" fill="#C4C4C4"/>
</svg>
